<svg id="Layer_2" data-name="Layer 2" xmlns="http://www.w3.org/2000/svg" xmlns:xlink="http://www.w3.org/1999/xlink" viewBox="0 0 128.62 135.33"><defs><style>.cls-1,.cls-2,.cls-4,.cls-5,.cls-6,.cls-7,.cls-8{fill:none;}.cls-2,.cls-4,.cls-5,.cls-6,.cls-7,.cls-8{stroke:#2a568f;}.cls-2,.cls-4,.cls-5,.cls-6{stroke-miterlimit:10;}.cls-2{stroke-width:4.25px;}.cls-3{clip-path:url(#clip-path);}.cls-4{stroke-linecap:square;stroke-width:2.13px;}.cls-5,.cls-7,.cls-8{stroke-linecap:round;stroke-width:1.42px;}.cls-7,.cls-8{stroke-linejoin:round;}.cls-8{stroke-dasharray:2.87 2.87;}.cls-9{fill:#2a568f;}</style><clipPath id="clip-path"><circle class="cls-1" cx="63.85" cy="67.67" r="60.01"/></clipPath></defs><circle class="cls-2" cx="63.99" cy="67.3" r="60.13"/><g class="cls-3"><circle class="cls-2" cx="63.72" cy="67.79" r="60.13"/><line class="cls-4" x1="17.38" y1="101.22" x2="116.67" y2="91.23"/><polyline class="cls-5" points="158.01 127.35 158.01 138.06 42.77 150.2 16.71 114.19 15.53 101.4"/><polyline class="cls-5" points="8.39 26.43 5.46 31.68 11.41 96.19 15.35 99.63"/><polygon class="cls-6" points="14.56 31.66 107.64 24.35 113.21 84.94 20.48 94.23 14.56 31.66"/><line class="cls-7" x1="61.12" y1="120.87" x2="113.25" y2="115.86"/><line class="cls-7" x1="32.08" y1="107.51" x2="33.49" y2="107.37"/><line class="cls-8" x1="36.35" y1="107.08" x2="115" y2="99.27"/><line class="cls-7" x1="116.43" y1="99.13" x2="117.84" y2="98.99"/><line class="cls-7" x1="38.31" y1="115.34" x2="39.72" y2="115.2"/><line class="cls-8" x1="42.58" y1="114.92" x2="121.24" y2="107.1"/><line class="cls-7" x1="122.67" y1="106.96" x2="124.08" y2="106.82"/><line class="cls-7" x1="43.8" y1="122.48" x2="45.21" y2="122.34"/><line class="cls-7" x1="48.8" y1="121.98" x2="50.21" y2="121.84"/><line class="cls-7" x1="123.25" y1="114.59" x2="124.66" y2="114.45"/><line class="cls-7" x1="128.24" y1="114.09" x2="129.65" y2="113.95"/><polygon class="cls-9" points="77.84 123.38 101.01 121.28 108.93 128.81 84.75 130.99 77.84 123.38"/><polygon class="cls-7" points="15.53 101.4 8.39 26.43 113.11 18.41 119.26 90.97 158.01 127.35 43.09 139.52 15.53 101.4"/><path class="cls-9" d="M81.46,30.83l5.64,7.85C82,45.58,80.74,48.6,77.8,54.6A151.42,151.42,0,0,0,68,81.67l-1-.94c-3.85-3.89-7.41-8.09-11.75-11.45-3.83-3-7.72-5.84-11.58-8.75-1.65-1.25-1.66-1.24-.79-3.13l3.49-7.53c0.11-.25.26-0.48,0.46-0.84L62.61,61C68.35,46.3,72.63,42,81.46,30.83Z"/></g></svg>