<svg viewBox="0 0 56.425 37.82114" xmlns="http://www.w3.org/2000/svg"><path d="M54.567 8.772l1.858-7.085A25.48 25.48 0 0 0 46.887 0a28.371 28.371 0 0 0-7.245.933V8.37a27.505 27.505 0 0 1 7.437-.955 21.99 21.99 0 0 1 7.488 1.357m-6.432 9.849v11.204a19.758 19.758 0 0 1-8.442 0v7.637a16.956 16.956 0 0 0 2.865.202c4.572 0 10.199-.554 13.767-1.86V18.62zM1.791 28.783L0 35.753a23.778 23.778 0 0 0 9.697 2.06 23.125 23.125 0 0 0 6.984-.803v-6.97a13.887 13.887 0 0 1-6.478.944 22.641 22.641 0 0 1-8.412-2.201m14.89-21.62l.05-6.832C6.933-1.227 0 2.994 0 10.78c.049 6.935 6.331 9.915 11.556 11.926a24.547 24.547 0 0 1 5.093 2.303l.032-7.948-3.97-1.91c-2.209-1.054-4.27-2.361-4.27-4.621 0-1.66 1.005-3.67 4.873-3.67a17.603 17.603 0 0 1 3.367.303" fill="#346094"/><path d="M23.966 11.837v25.575h8.392V3.396a17.342 17.342 0 0 0-8.391 8.44" fill="#b1a99f"/></svg>